<?xml version="1.0" encoding="utf-8"?>
<!-- Generator: Adobe Illustrator 19.0.1, SVG Export Plug-In . SVG Version: 6.00 Build 0)  -->
<svg version="1.1" id="Capa_1" xmlns="http://www.w3.org/2000/svg" xmlns:xlink="http://www.w3.org/1999/xlink" x="0px" y="0px"
	 viewBox="0 -32 192 192" style="enable-background:new 0 0 256 256;" xml:space="preserve">
<style type="text/css">
	.st0{fill:#FDCD75;}
	.st1{fill:#B4D174;}
	.st2{fill:#EC646B;}
</style>
<g>
	<path class="st0" d="M102.3,39.3c1.4-0.8,1.4-2.2,0-3L66.6,15.5c-1.4-0.8-3.8-0.8-5.2,0L25.6,36.3c-1.4,0.8-1.4,2.2,0,3l35.7,21
		c1.4,0.8,3.8,0.8,5.2,0L102.3,39.3z"/>
</g>
<g>
	<path class="st1" d="M107,43.9c0-1.7-1.2-2.3-2.6-1.5L68.5,63.6c-1.4,0.8-2.5,2.9-2.5,4.5v41.8c0,1.7,1.1,2.3,2.6,1.5l35.9-20.9
		c1.4-0.8,2.6-2.9,2.6-4.5V43.9z"/>
</g>
<g>
	<path class="st2" d="M23.6,42.6C22.2,41.7,21,42.4,21,44v42c0,1.7,1.2,3.7,2.6,4.5l35.9,20.9c1.4,0.8,2.6,0.2,2.6-1.5V68.2
		c0-1.7-1.1-3.7-2.5-4.5L23.6,42.6z"/>
</g>
</svg>
